<?xml version="1.0" encoding="utf-8" ?>
<svg baseProfile="tiny" height="300px" version="1.2" width="300px" xmlns="http://www.w3.org/2000/svg" xmlns:ev="http://www.w3.org/2001/xml-events" xmlns:xlink="http://www.w3.org/1999/xlink"><defs /><polyline fill="none" points="152,273 152,274 151,275 151,276 150,277 150,281 149,282 149,286 148,287 148,291 151,291 152,290 152,289 153,288 153,286 154,285 154,284 155,283 155,273" stroke="black" stroke-width="1" /><polyline fill="none" points="283,268 264,287 264,288 263,289 262,289 261,290 260,290 256,294 255,294 253,292 253,288 252,287 252,285 251,284 251,282 250,281 250,280 246,276 249,279 249,280 251,282 251,284 252,285 252,287 253,288 253,292 254,293 254,294 256,294 257,293 258,293 262,289 263,289 284,268" stroke="black" stroke-width="1" /><polyline fill="none" points="255,268 258,271 258,272 259,273 259,275 260,276 260,278 261,279 261,282 262,283 262,286 261,287 259,287 258,286 258,285 257,284 257,283 256,282 256,281 255,280 255,279 254,278 254,276 252,274 252,272 251,271 251,269 249,269 244,274 244,275 244,274 245,273 246,273 250,269 251,270 251,271 252,272 252,274 253,275 253,276 254,277 254,278 255,279 255,280 256,281 256,282 257,283 257,284 258,285 258,286 259,287 261,287 262,286 262,283 261,282 261,279 260,278 260,276 259,275 259,273 258,272 258,271 257,270 257,269 256,268" stroke="black" stroke-width="1" /><polyline fill="none" points="219,263 219,264" stroke="black" stroke-width="1" /><polyline fill="none" points="180,263 180,265 182,265 183,264 191,264 192,263 194,263 195,264 195,276 194,277 195,278 195,279 192,282 191,282 189,284 188,284 187,285 186,285 185,286 184,286 182,288 181,288 180,289 181,288 182,288 183,287 184,287 186,285 188,285 190,283 191,283 193,281 194,281 195,280 195,278 194,277 195,276 195,263 192,263 191,264 183,264 182,265 181,265 180,264" stroke="black" stroke-width="1" /><polyline fill="none" points="190,254 189,255 189,257 191,257 191,255" stroke="black" stroke-width="1" /><polyline fill="none" points="271,251 272,251 273,252 274,252 283,261 283,262 284,263 284,265 283,266 281,266 269,254 269,253 269,254 270,255 270,256 271,257 272,257 274,259 274,260 277,263 278,263 281,266 283,266 284,265 284,263 283,262 283,261 282,260 282,259 276,253 275,253 274,252 273,252 272,251" stroke="black" stroke-width="1" /><polyline fill="none" points="268,251 266,253 266,254 261,259 260,259 253,266 253,267 262,258 263,258 265,256 265,255 267,253 267,252 268,251 269,251" stroke="black" stroke-width="1" /><polyline fill="none" points="119,247 118,248 118,249 119,250 118,249 118,248 119,247 120,248 121,248 120,248" stroke="black" stroke-width="1" /><polyline fill="none" points="271,246 271,247 269,249 270,249 270,248 272,246 273,246 274,247 275,247 277,249 278,249 279,250 280,250 290,260 290,261 289,262 289,263 286,266 290,262 290,259 282,251 281,251 280,250 279,250 277,248 276,248 274,246" stroke="black" stroke-width="1" /><polyline fill="none" points="248,245 247,246 248,247 249,247 248,247 247,246 248,245 249,245" stroke="black" stroke-width="1" /><polyline fill="none" points="236,243 234,245 234,248 233,249 233,251 234,252 234,255 233,256 232,256 230,258 229,258 228,257 229,256 229,249 228,249 227,248 225,250 225,251 224,252 224,256 223,257 223,261 222,262 222,263 221,264 223,262 223,257 224,256 224,252 225,251 225,250 227,248 229,250 229,256 228,257 228,258 230,258 231,257 232,257 234,255 234,252 233,251 233,249 234,248 234,245 236,243 237,243 239,245 239,248 238,249 238,250 239,251 241,251 242,252 242,255 241,256 241,257 239,259 238,259 236,261 235,261 232,264 231,264 229,266 228,266 227,267 226,267 224,269 223,269 222,270 221,270 218,273 217,273 215,275 214,275 213,276 212,276 210,278 209,278 207,280 206,280 205,281 204,281 202,283 201,283 200,284 199,284 198,285 197,285 194,288 193,288 192,289 191,289 189,291 188,291 187,292 186,292 185,293 184,293 183,294 182,294 181,295 180,295 179,296 178,296 177,297 176,297 175,298 174,298 173,299 172,299 171,300 169,300 168,301 148,301 147,300 144,300 143,299 140,299 139,298 138,298 137,297 136,297 134,295 136,293 137,293 137,289 138,288 138,287 140,285 141,285 142,286 142,290 141,291 141,294 145,294 146,295 155,295 156,296 158,296 158,293 159,292 159,291 160,290 160,289 161,288 161,287 162,286 162,285 163,284 163,283 167,279 168,280 168,285 167,286 167,288 165,290 165,291 162,294 162,296 164,296 165,295 167,295 168,294 170,294 172,292 172,290 173,289 173,286 174,285 174,283 175,282 175,279 176,278 176,273 179,270 181,272 181,281 180,282 180,284 179,285 179,286 178,287 179,286 179,285 180,284 180,282 181,281 181,272 179,270 178,271 177,271 177,272 176,273 176,278 175,279 175,282 174,283 174,285 173,286 173,289 172,290 172,292 170,294 168,294 167,295 165,295 164,296 163,296 162,295 164,293 164,292 166,290 166,289 167,288 167,286 168,285 168,280 167,279 166,280 165,280 164,281 164,282 163,283 163,284 162,285 162,286 161,287 161,288 160,289 160,290 159,291 159,292 158,293 158,295 157,296 156,296 155,295 146,295 145,294 142,294 141,293 141,291 142,290 142,286 141,285 140,285 138,287 138,288 137,289 137,292 134,295 135,296 135,297 137,297 138,298 139,298 140,299 143,299 144,300 147,300 148,301 168,301 169,300 171,300 172,299 173,299 174,298 175,298 176,297 177,297 178,296 179,296 180,295 181,295 182,294 183,294 184,293 185,293 186,292 187,292 188,291 189,291 190,290 191,290 193,288 194,288 195,287 196,287 199,284 200,284 201,283 202,283 203,282 204,282 206,280 207,280 208,279 209,279 211,277 212,277 214,275 215,275 216,274 217,274 219,272 220,272 223,269 224,269 225,268 226,268 228,266 229,266 230,265 231,265 233,263 234,263 237,260 238,260 242,256 242,252 241,251 239,251 238,250 238,249 239,248 239,245 237,243" stroke="black" stroke-width="1" /><polyline fill="none" points="160,239 159,240 157,240 156,241 155,241 154,242 153,242 152,243 151,243 150,244 149,244 147,246 146,246 142,250 141,250 136,255 135,255 132,258 131,258 124,265 123,265 115,273 115,274 114,275 114,276 112,278 112,279 111,280 111,281 110,282 110,283 111,284 114,284 118,280 118,279 120,277 121,277 131,267 132,267 139,260 140,260 144,256 145,256 148,253 149,253 153,249 154,249 156,247 157,247 158,246 159,246 160,245 161,245 163,243 163,241 162,240 161,240" stroke="black" stroke-width="1" /><polyline fill="none" points="128,236 128,237" stroke="black" stroke-width="1" /><polyline fill="none" points="277,234 276,235 276,237 275,238 275,240 276,241 277,241 279,243 280,243 282,245 279,242 278,242 275,239 275,238 276,237 276,235 277,234 278,234 279,235 279,236 280,237 280,238 281,239 281,240 282,241 282,242 283,243 282,242 282,241 281,240 281,238 279,236 279,235 278,234" stroke="black" stroke-width="1" /><polyline fill="none" points="88,232 87,233 87,239 88,240 88,243 89,244 89,245 90,246 90,247 94,247 94,240 93,239 93,237 92,236 92,235 91,234 91,233 90,232" stroke="black" stroke-width="1" /><polyline fill="none" points="133,231 133,232" stroke="black" stroke-width="1" /><polyline fill="none" points="201,230 200,231 199,231 198,232 199,233 200,233 201,232 203,232 201,232 200,231 201,230 203,230" stroke="black" stroke-width="1" /><polyline fill="none" points="149,229 148,230 147,230 145,232 145,233 149,229 150,229" stroke="black" stroke-width="1" /><polyline fill="none" points="131,229 131,241 130,242 129,241 129,240 129,241 128,242 127,241 127,239 126,238 126,235 128,233 127,233 127,234 126,235 126,238 127,239 127,241 128,242 128,245 128,242 129,241 130,242 131,242 131,230 132,229" stroke="black" stroke-width="1" /><polyline fill="none" points="141,228 142,229 142,230 143,231 143,233 143,231 142,230 142,229" stroke="black" stroke-width="1" /><polyline fill="none" points="227,226 226,227 223,227 222,228 219,228 218,229 213,229 212,230 208,230 212,230 213,229 218,229 219,228 222,228 223,227 226,227 227,226 240,226 243,229 241,231 240,231 239,232 227,232 226,233 223,233 222,234 219,234 218,235 214,235 213,236 207,236 206,237 202,237 201,238 199,238 198,239 197,239 196,240 195,240 194,241 193,241 192,242 191,242 190,243 189,243 188,244 188,246 189,247 189,248 192,251 192,252 193,253 193,254 194,255 194,257 195,258 198,258 201,261 201,270 200,271 200,274 199,275 200,276 202,276 204,274 205,274 206,273 207,273 209,271 210,271 211,270 212,270 212,268 213,267 213,263 214,262 214,258 215,257 215,254 217,252 218,252 220,254 220,261 220,253 219,252 216,252 216,253 215,254 215,257 214,258 214,262 213,263 213,267 212,268 212,269 210,271 209,271 208,272 207,272 205,274 204,274 203,275 202,275 201,276 200,276 199,275 200,274 200,271 201,270 201,261 200,260 200,259 199,259 198,258 195,258 194,257 194,255 193,254 193,253 192,252 192,251 191,250 191,249 188,246 188,244 189,243 190,243 191,242 192,242 193,241 194,241 195,240 196,240 197,239 198,239 199,238 201,238 202,237 206,237 207,236 213,236 214,235 218,235 219,234 222,234 223,233 226,233 227,232 239,232 240,231 242,231 243,230 243,228 242,227 241,227 240,226" stroke="black" stroke-width="1" /><polyline fill="none" points="143,226 147,226 148,227 150,227 148,227 147,226" stroke="black" stroke-width="1" /><polyline fill="none" points="134,226 134,228 135,229 135,230 136,231 136,233 137,234 137,235 138,236 138,238 137,239 136,239 135,238 135,237 134,236 134,235 134,236 135,237 135,238 136,239 138,239 138,236 137,235 137,234 136,233 136,230 134,228 134,227 135,226 137,226 138,227 138,229 139,230 139,231 140,232 140,233 142,235 142,236 141,237 141,238 140,239 140,240 139,241 138,241 132,247 131,247 130,248 129,248 128,247 127,247 126,246 126,245 125,244 125,243 123,243 123,246 124,247 124,248 125,249 128,249 129,248 130,248 131,247 132,247 133,246 134,246 140,240 140,239 142,237 142,235 140,233 140,232 139,231 139,230 138,229 138,227 137,226" stroke="black" stroke-width="1" /><polyline fill="none" points="126,225 129,225" stroke="black" stroke-width="1" /><polyline fill="none" points="147,224 149,224 150,225 151,225 153,227 160,227 161,228 161,229 160,230 156,230 155,231 153,231 152,232 151,232 150,233 149,233 145,237 145,238 143,240 143,241 135,249 134,249 132,251 131,251 130,252 129,252 128,253 126,253 125,254 119,254 118,253 117,253 112,248 112,247 113,246 114,246 115,245 117,245 121,241 121,239 122,238 122,235 124,233 124,232 129,227 128,227 125,230 125,231 123,233 123,234 122,235 122,238 121,239 121,240 116,245 115,245 114,246 113,246 112,247 112,248 114,250 114,251 115,252 116,252 117,253 118,253 119,254 125,254 126,253 128,253 129,252 130,252 131,251 132,251 133,250 134,250 136,248 137,248 142,243 142,242 144,240 144,239 151,232 152,232 153,231 155,231 156,230 160,230 161,229 161,228 160,227 154,227 153,226 152,226 151,225 150,225 149,224" stroke="black" stroke-width="1" /><polyline fill="none" points="145,222 145,223" stroke="black" stroke-width="1" /><polyline fill="none" points="141,221 140,222 141,223 142,223 141,223 140,222 141,221 143,221" stroke="black" stroke-width="1" /><polyline fill="none" points="103,220 102,221 99,221 98,222 95,222 94,223 92,223 90,225 90,226 91,227 102,227 103,226 107,226 108,225 109,225 110,224 110,221 109,221 108,220" stroke="black" stroke-width="1" /><polyline fill="none" points="81,216 80,217 79,217 79,221 80,222 80,225 79,226 78,226 77,227 76,227 75,228 74,228 74,229 73,230 73,231 74,232 79,232 80,231 82,231 84,229 84,218 83,217 83,216" stroke="black" stroke-width="1" /><polyline fill="none" points="138,215 138,218 137,219 137,220 137,219 138,218" stroke="black" stroke-width="1" /><polyline fill="none" points="249,213 248,214 243,214 242,215 239,215 238,216 236,216 235,217 233,217 232,218 231,218 230,219 229,219 228,220 226,220 225,221 224,221 223,222 221,222 220,223 218,223 217,224 216,224 215,225 213,225 212,226 211,226 210,227 209,227 208,228 207,228 206,229 205,229 206,229 207,228 208,228 209,227 210,227 211,226 212,226 213,225 215,225 216,224 217,224 218,223 220,223 221,222 223,222 224,221 225,221 226,220 228,220 229,219 230,219 231,218 232,218 233,217 235,217 236,216 238,216 239,215 242,215 243,214 248,214 249,213 267,213 269,215 269,216 270,217 270,219 271,220 271,221 272,222 272,223 273,224 273,225 274,226 274,228 273,229 273,230 272,231 272,232 271,233 271,234 270,235 270,236 269,237 269,238 268,239 268,240 267,241 267,242 266,243 266,244 264,246 264,247 253,258 252,258 251,259 251,260 249,262 248,262 243,267 242,267 235,274 234,274 230,278 229,278 224,283 223,283 219,287 218,287 217,288 215,288 214,289 213,289 212,290 211,290 210,291 209,291 208,292 207,292 206,293 205,293 204,294 201,294 200,295 198,295 197,296 194,296 193,297 192,297 191,298 190,298 189,299 188,299 187,300 186,300 185,301 183,301 182,302 181,302 180,303 179,303 178,304 176,304 175,305 173,305 172,306 171,306 170,307 167,307 166,308 161,308 160,309 155,309 154,310 151,310 150,311 147,311 146,312 142,312 141,313 137,313 136,314 132,314 131,315 121,315 119,317 121,319 123,319 124,320 136,320 137,319 141,319 142,318 146,318 147,317 150,317 151,316 154,316 155,315 158,315 159,314 167,314 168,313 171,313 172,312 174,312 175,311 176,311 177,310 178,310 179,309 181,309 182,308 183,308 185,310 185,311 186,312 186,314 187,315 187,318 188,319 188,321 189,322 189,324 188,325 187,325 186,326 185,326 184,327 182,327 181,328 180,328 179,329 178,329 177,330 176,330 175,331 174,331 173,332 172,332 171,333 170,333 169,334 167,334 166,333 166,332 165,331 165,330 164,329 164,328 163,327 163,326 161,324 158,324 158,325 157,326 157,327 158,328 158,329 159,330 159,331 160,332 160,333 162,335 162,336 161,337 160,337 159,338 158,338 157,339 156,339 155,340 154,340 153,341 152,341 151,342 150,342 149,343 148,343 147,344 145,344 144,345 143,345 142,346 141,346 140,347 139,347 138,348 135,348 134,349 131,349 130,350 118,350 117,349 115,349 113,347 112,347 110,345 110,344 108,342 108,341 107,340 107,339 104,336 104,335 102,333 102,332 100,330 100,329 99,329 98,328 96,330 96,332 97,333 97,334 98,335 98,336 99,337 99,338 100,339 100,340 101,341 101,342 102,343 102,344 103,345 103,346 104,347 104,348 108,352 109,352 111,354 113,354 114,355 119,355 120,356 127,356 128,355 134,355 135,354 138,354 139,353 141,353 142,352 144,352 145,351 146,351 147,350 148,350 149,349 150,349 151,348 152,348 153,347 154,347 155,346 157,346 158,345 159,345 160,344 161,344 163,342 165,342 166,341 167,341 168,340 170,340 171,339 172,339 173,338 174,338 175,337 176,337 177,336 178,336 179,335 181,335 182,334 183,334 184,333 185,333 186,332 187,332 188,331 189,331 190,330 190,329 191,328 191,327 193,325 193,320 192,319 192,313 191,312 191,309 190,308 190,306 192,304 193,304 195,302 197,302 198,301 201,301 202,300 205,300 206,299 207,299 208,298 210,298 211,297 212,297 213,296 214,296 215,295 216,295 217,294 218,294 219,293 220,293 221,292 222,292 223,291 224,291 227,288 228,288 233,283 234,283 237,280 238,280 241,277 240,277 236,281 235,281 232,284 231,284 226,289 225,289 222,292 221,292 220,293 219,293 218,294 217,294 216,295 215,295 214,296 213,296 212,297 211,297 210,298 208,298 207,299 206,299 205,300 202,300 201,301 198,301 197,302 195,302 194,303 193,303 191,305 190,305 190,308 191,309 191,312 192,313 192,319 193,320 193,324 192,325 192,326 191,327 191,328 187,332 186,332 185,333 184,333 183,334 182,334 181,335 179,335 178,336 177,336 176,337 175,337 174,338 173,338 172,339 171,339 170,340 168,340 167,341 166,341 165,342 163,342 162,343 161,343 159,345 158,345 157,346 155,346 154,347 153,347 152,348 151,348 150,349 149,349 148,350 147,350 146,351 145,351 144,352 142,352 141,353 139,353 138,354 135,354 134,355 128,355 127,356 120,356 119,355 114,355 113,354 112,354 111,353 110,353 103,346 103,345 102,344 102,343 101,342 101,341 100,340 100,339 99,338 99,337 98,336 98,335 97,334 97,333 96,332 96,330 98,328 101,331 101,332 103,334 103,335 105,337 105,338 108,341 108,342 109,343 109,344 113,348 114,348 115,349 117,349 118,350 130,350 131,349 134,349 135,348 138,348 139,347 140,347 141,346 142,346 143,345 144,345 145,344 147,344 148,343 149,343 150,342 151,342 152,341 154,341 156,339 157,339 158,338 159,338 160,337 162,337 162,334 159,331 159,330 158,329 158,328 157,327 157,326 159,324 160,324 164,328 164,329 165,330 165,331 166,332 166,333 167,334 169,334 170,333 171,333 172,332 173,332 174,331 175,331 176,330 178,330 180,328 181,328 182,327 184,327 185,326 186,326 187,325 189,325 189,322 188,321 188,319 187,318 187,315 186,314 186,312 185,311 185,309 184,309 183,308 182,308 181,309 179,309 178,310 177,310 176,311 175,311 174,312 172,312 171,313 168,313 167,314 159,314 158,315 155,315 154,316 151,316 150,317 147,317 146,318 142,318 141,319 137,319 136,320 124,320 123,319 121,319 119,317 121,315 131,315 132,314 136,314 137,313 141,313 142,312 146,312 147,311 150,311 151,310 154,310 155,309 160,309 161,308 166,308 167,307 170,307 171,306 172,306 173,305 175,305 176,304 178,304 179,303 180,303 181,302 182,302 183,301 185,301 186,300 187,300 188,299 189,299 190,298 191,298 192,297 193,297 194,296 197,296 198,295 200,295 201,294 204,294 205,293 206,293 207,292 208,292 209,291 210,291 211,290 212,290 213,289 214,289 215,288 217,288 218,287 219,287 220,286 221,286 227,280 228,280 231,277 232,277 236,273 237,273 244,266 245,266 254,257 255,257 263,249 263,248 265,246 265,245 266,244 266,243 267,242 267,241 268,240 268,239 269,238 269,237 270,236 270,235 271,234 271,233 272,232 272,231 274,229 274,226 273,225 273,224 272,223 272,222 271,221 271,220 270,219 270,217 269,216 269,214 268,214 267,213" stroke="black" stroke-width="1" /><polyline fill="none" points="112,212 112,213" stroke="black" stroke-width="1" /><polyline fill="none" points="155,211 154,212 153,212 152,213 152,214 151,215 151,216 150,217 147,217 145,219 145,220 145,219 147,217 151,217 151,215 155,211 157,213 158,213 159,214 161,214 162,215 164,215 165,216 172,216 173,217 173,220 172,221 172,235 173,236 173,242 174,243 174,245 173,246 172,246 171,247 170,247 168,249 167,249 165,251 163,251 162,252 161,252 160,253 159,253 158,254 157,254 156,255 155,255 153,257 152,257 151,258 150,258 149,259 148,259 147,260 146,260 144,262 143,262 139,266 138,266 138,267 134,271 134,273 138,273 139,272 140,272 141,271 142,271 145,268 146,268 147,267 148,267 150,265 151,265 153,263 154,263 155,262 156,262 157,261 158,261 159,260 160,260 161,259 162,259 163,258 164,258 165,257 166,257 167,256 168,256 169,255 170,255 171,254 172,254 174,252 176,252 177,253 177,254 178,255 178,256 179,257 179,258 180,259 180,260 181,261 180,260 180,258 178,256 178,255 177,254 177,253 176,252 174,252 173,253 172,253 170,255 169,255 168,256 167,256 166,257 165,257 164,258 163,258 162,259 161,259 160,260 159,260 158,261 157,261 156,262 155,262 154,263 153,263 152,264 151,264 149,266 148,266 146,268 145,268 144,269 143,269 140,272 139,272 138,273 135,273 134,272 134,271 136,269 137,269 137,268 140,265 141,265 145,261 146,261 148,259 149,259 150,258 151,258 152,257 153,257 154,256 155,256 157,254 158,254 159,253 160,253 161,252 162,252 163,251 165,251 166,250 167,250 169,248 170,248 172,246 173,246 174,245 174,243 173,242 173,236 172,235 172,221 173,220 173,217 172,216 165,216 164,215 162,215 161,214 159,214 157,212 156,212" stroke="black" stroke-width="1" /><polyline fill="none" points="114,210 114,215 115,216 115,217 117,219 118,219 119,220 120,220 121,221 123,221 124,222 126,222 126,216 126,221 125,222 124,222 123,221 121,221 120,220 119,220 114,215" stroke="black" stroke-width="1" /><polyline fill="none" points="147,209 146,210 147,209 148,210 148,213 147,214 148,213 148,210" stroke="black" stroke-width="1" /><polyline fill="none" points="142,209 143,210 143,215 142,216 142,217 139,220 140,219 141,219 142,218 142,216 143,215 143,210" stroke="black" stroke-width="1" /><polyline fill="none" points="264,208 265,208" stroke="black" stroke-width="1" /><polyline fill="none" points="140,208 139,209" stroke="black" stroke-width="1" /><polyline fill="none" points="210,207 211,207" stroke="black" stroke-width="1" /><polyline fill="none" points="145,206 146,206" stroke="black" stroke-width="1" /><polyline fill="none" points="122,205 123,205" stroke="black" stroke-width="1" /><polyline fill="none" points="146,202 146,203" stroke="black" stroke-width="1" /><polyline fill="none" points="126,202 125,203 125,206 126,207 126,209 125,210 124,209 123,210 123,211 123,210 124,209 125,210 125,213 125,210 126,209 127,210 127,212 128,213 128,216 128,213 127,212 127,210 126,209 126,207 125,206 125,203 126,202 128,202 130,204 131,204 133,206 134,206 136,208 136,215 135,216 135,219 134,220 134,221 133,222 129,222 134,222 134,220 135,219 135,216 136,215 136,207 135,207 133,205 132,205 130,203 129,203 128,202" stroke="black" stroke-width="1" /><polyline fill="none" points="212,201 213,201" stroke="black" stroke-width="1" /><polyline fill="none" points="225,200 222,203 221,203 219,205 218,205 217,206 215,206 214,205 214,206 217,206 218,205 219,205 220,204 221,204 223,202 224,202 224,201" stroke="black" stroke-width="1" /><polyline fill="none" points="101,200 101,201" stroke="black" stroke-width="1" /><polyline fill="none" points="208,199 208,200 209,199" stroke="black" stroke-width="1" /><polyline fill="none" points="205,199 205,206 206,207 207,207 206,207 205,206" stroke="black" stroke-width="1" /><polyline fill="none" points="221,198 223,198" stroke="black" stroke-width="1" /><polyline fill="none" points="123,198 123,201 122,202 123,202" stroke="black" stroke-width="1" /><polyline fill="none" points="121,198 121,200" stroke="black" stroke-width="1" /><polyline fill="none" points="225,197 225,198" stroke="black" stroke-width="1" /><polyline fill="none" points="142,197 142,198 143,199 143,201 144,202 144,204 144,202 143,201 143,199 142,198" stroke="black" stroke-width="1" /><polyline fill="none" points="136,197 136,199 137,200 137,202 138,203 138,204 140,206 138,204 138,203 137,202 137,200 136,199" stroke="black" stroke-width="1" /><polyline fill="none" points="100,197 101,197 102,198 102,197" stroke="black" stroke-width="1" /><polyline fill="none" points="151,196 151,198 152,199 152,200 153,201 153,202 155,204 155,205 154,206 154,207 152,209 151,209 150,208 150,206 149,205 149,203 148,202 148,201 148,202 149,203 149,205 150,206 150,208 151,209 153,209 153,208 155,206 155,204 154,203 154,202 152,200 152,199 151,198" stroke="black" stroke-width="1" /><polyline fill="none" points="108,196 107,197 108,196 109,196 110,197 110,198 111,199 111,201 112,202 112,205 113,206 113,208 113,206 112,205 112,202 111,201 111,199 110,198 110,197 109,196" stroke="black" stroke-width="1" /><polyline fill="none" points="248,195 247,196 247,197 247,196 248,195 249,196 249,197 249,196" stroke="black" stroke-width="1" /><polyline fill="none" points="122,195 122,196" stroke="black" stroke-width="1" /><polyline fill="none" points="120,195 120,196" stroke="black" stroke-width="1" /><polyline fill="none" points="201,194 200,195 199,195 197,197 197,198 196,199 196,202 197,203 198,203 200,205 202,205 202,200 203,199 203,197 204,196 203,197 203,199 202,200 202,204 201,205 200,204 199,204 196,201 196,199 197,198 197,197 199,195 200,195 201,194 202,194" stroke="black" stroke-width="1" /><polyline fill="none" points="204,193 205,193 206,194 207,194 208,195 209,195 210,196 211,196 212,197 214,197 215,198 217,198 215,198 214,197 212,197 211,196 210,196 209,195 208,195 207,194 206,194 205,193" stroke="black" stroke-width="1" /><polyline fill="none" points="141,193 141,195 141,194 142,193 143,194 143,195 144,195 145,196 145,200 145,196 142,193" stroke="black" stroke-width="1" /><polyline fill="none" points="136,191 135,192 135,195 135,192 136,191 137,191 138,192 138,194 139,195 139,197 140,198 140,200 141,201 141,203 142,204 141,203 141,201 140,200 140,198 139,197 139,195 138,194 138,192 137,191" stroke="black" stroke-width="1" /><polyline fill="none" points="126,191 124,193 124,196 125,197 125,198 126,198 127,199 128,199 129,200 130,200 133,203 134,203 135,202 134,201 134,199 133,198 133,195 132,194 132,191 132,194 133,195 133,198 134,199 134,201 133,202 132,201 131,201 130,200 129,200 128,199 127,199 124,196 124,193 126,191 130,191" stroke="black" stroke-width="1" /><polyline fill="none" points="170,190 168,192 168,193 165,196 165,197 163,199 163,200 161,202 161,203 160,204 160,206 161,207 161,208 162,208 163,209 164,209 165,210 166,210 167,211 168,211 169,212 170,212 171,213 174,213 174,207 175,206 175,203 174,202 174,196 173,195 173,192 172,191 172,190" stroke="black" stroke-width="1" /><polyline fill="none" points="107,190 110,190 111,191 114,191 117,194 117,195 118,196 118,199 119,200 119,204 120,205 120,210 121,211 121,216 122,217 123,217 122,217 121,216 121,211 120,210 120,205 119,204 119,200 118,199 118,196 117,195 117,194 116,193 116,192 115,192 114,191 111,191 110,190" stroke="black" stroke-width="1" /><polyline fill="none" points="104,189 105,189" stroke="black" stroke-width="1" /><polyline fill="none" points="208,187 207,188 204,188 207,188 208,187 209,187" stroke="black" stroke-width="1" /><polyline fill="none" points="100,185 99,186 99,187 98,188 97,187 96,187 96,190 97,191 97,196 98,197 98,201 99,202 99,203 100,204 100,205 102,207 102,208 104,210 104,211 105,211 111,217 111,218 112,219 112,220 114,220 115,221 116,221 118,223 120,223 121,224 124,224 121,224 120,223 119,223 118,222 117,222 115,220 113,220 111,218 111,216 109,214 110,213 110,211 111,210 111,208 110,207 110,205 109,204 109,202 108,201 108,199 108,201 109,202 109,204 110,205 110,207 111,208 111,210 110,211 109,211 107,209 107,208 106,207 106,204 106,207 107,208 107,209 110,212 110,213 109,214 107,212 106,212 103,209 103,208 101,206 101,205 99,203 99,202 98,201 98,197 97,196 97,191 96,190 96,188 97,187 99,189 100,189 101,190 101,191 102,192 102,193 103,194 103,195 105,197 105,200 105,197 104,196 104,195 102,193 102,192 101,191 101,190 100,189 101,188 102,188 101,188 100,189 99,189 98,188 99,187 99,186 100,185 101,186 104,186 105,187 109,187 110,188 113,188 114,189 113,188 110,188 109,187 105,187 104,186 101,186" stroke="black" stroke-width="1" /><polyline fill="none" points="193,182 193,183" stroke="black" stroke-width="1" /><polyline fill="none" points="196,180 196,188 195,189 193,189 191,187 192,186 192,185 192,186 191,187 193,189 196,189" stroke="black" stroke-width="1" /><polyline fill="none" points="172,179 172,180" stroke="black" stroke-width="1" /><polyline fill="none" points="195,177 195,178 194,179 194,180 194,179 196,177" stroke="black" stroke-width="1" /><polyline fill="none" points="175,177 175,179 174,180 174,183 173,184 174,185 174,186 180,192 180,193 181,194 181,196 182,197 182,199 183,200 183,202 184,203 184,214 183,215 183,217 182,218 182,219 181,220 181,226 182,227 182,228 183,229 183,231 184,232 184,236 185,237 185,238 187,238 188,237 189,237 188,237 187,238 186,238 184,236 184,232 183,231 183,229 182,228 182,227 181,226 181,220 182,219 182,218 183,217 183,215 184,214 184,203 183,202 183,200 182,199 182,197 181,196 181,194 180,193 180,192 179,191 179,190 173,184 174,183 174,180 175,179" stroke="black" stroke-width="1" /><polyline fill="none" points="157,176 157,179 158,180 158,182 159,183 159,184 160,185 160,186 161,187 161,188 162,189 162,190 164,192 164,193 163,194 163,195 160,198 157,195 157,194 156,193 156,192 155,191 155,189 155,191 154,192 154,194 153,195 153,196 153,195 154,194 155,195 155,197 154,198 154,199 155,200 154,199 154,198 155,197 158,200 155,197 155,195 154,194 154,192 155,191 156,192 156,193 157,194 157,195 158,196 158,197 159,198 161,198 162,197 162,196 164,194 164,192 162,190 162,189 161,188 161,187 160,186 160,185 159,184 159,183 158,182 158,180 157,179" stroke="black" stroke-width="1" /><polyline fill="none" points="155,174 154,175 154,176 153,177 153,182 154,183 154,187 153,188 152,187 153,188 153,189 153,188 154,187 154,183 153,182 153,177 156,174" stroke="black" stroke-width="1" /><polyline fill="none" points="202,172 201,173 201,189 200,190 199,190 201,190 201,173 202,172 203,173 203,178 203,173" stroke="black" stroke-width="1" /><polyline fill="none" points="176,172 176,175" stroke="black" stroke-width="1" /><polyline fill="none" points="166,171 165,172" stroke="black" stroke-width="1" /><polyline fill="none" points="218,169 218,177" stroke="black" stroke-width="1" /><polyline fill="none" points="162,169 162,172 163,173 163,175 164,176 164,177 165,178 165,179 166,180 166,182 167,183 167,184 168,185 168,189 167,190 166,190 164,188 164,187 163,186 163,185 162,184 162,183 161,182 161,181 160,180 160,178 160,180 161,181 161,182 162,183 162,184 163,185 163,186 164,187 164,188 165,189 165,190 167,190 168,189 168,184 166,182 166,180 165,179 165,178 164,177 164,176 163,175 163,173 162,172" stroke="black" stroke-width="1" /><polyline fill="none" points="228,166 228,168 227,169 227,170 226,171 226,172 225,173 225,174 224,175 224,178 215,187 214,187 213,188 212,188 211,189 210,189 209,190 207,190 207,192 209,192 210,193 211,193 212,194 213,194 214,195 216,195 217,196 221,196 222,195 224,195 225,194 226,194 227,193 228,193 229,194 229,198 228,199 228,200 226,202 226,203 223,206 222,206 221,207 220,207 219,208 217,208 216,209 215,209 214,210 206,210 205,209 202,209 201,208 200,208 197,205 196,205 194,203 194,201 193,200 193,199 194,198 194,197 197,194 196,194 195,195 195,196 194,197 194,198 193,199 193,200 194,201 194,203 198,207 199,207 200,208 201,208 202,209 205,209 206,210 215,210 217,208 219,208 220,207 221,207 222,206 223,206 224,205 225,205 225,204 227,202 227,201 228,200 228,199 229,198 229,193 227,193 226,194 225,194 224,195 222,195 221,196 217,196 216,195 214,195 213,194 212,194 211,193 210,193 209,192 208,192 207,191 208,190 209,190 210,189 211,189 212,188 214,188 216,186 217,186 222,181 222,180 224,178 224,175 225,174 225,173 226,172 226,171 227,170 227,169 228,168" stroke="black" stroke-width="1" /><polyline fill="none" points="226,165 226,167" stroke="black" stroke-width="1" /><polyline fill="none" points="209,165 209,184 210,185 209,184 209,166 210,165 211,166 211,165" stroke="black" stroke-width="1" /><polyline fill="none" points="224,163 224,167" stroke="black" stroke-width="1" /><polyline fill="none" points="174,163 174,164" stroke="black" stroke-width="1" /><polyline fill="none" points="176,162 176,169" stroke="black" stroke-width="1" /><polyline fill="none" points="229,161 229,164" stroke="black" stroke-width="1" /><polyline fill="none" points="168,161 169,162 169,163 170,164 170,165 171,166 171,167 174,170 174,172 173,173 173,177 173,173 174,172 174,169 173,169 171,167 171,165 172,164 172,163 172,164 171,165 169,163 169,162" stroke="black" stroke-width="1" /><polyline fill="none" points="221,160 221,177 220,178 220,179 219,180 220,179 220,178 221,177" stroke="black" stroke-width="1" /><polyline fill="none" points="213,160 212,161 211,161 210,162 209,162 206,165 205,165 200,170 200,171 198,173 198,176 198,174 199,173 199,172 208,163 209,163 211,161 212,161 213,160 215,160 216,161 216,169 215,170 215,183 214,184 213,184 212,183 212,181 212,184 214,184 215,183 215,170 216,169 216,160" stroke="black" stroke-width="1" /><polyline fill="none" points="219,158 218,159 218,161 218,159 219,158 221,158" stroke="black" stroke-width="1" /><polyline fill="none" points="166,158 166,167 165,168 164,167 164,166 164,167 165,168 165,169 165,168 166,167 167,168 167,169 168,170 168,172 169,173 169,174 170,175 170,176 169,177 169,178 168,179 167,178 167,177 167,178 168,179 168,180 170,182 170,183 170,182 168,180 168,179 169,178 169,177 170,176 170,175 169,174 169,173 168,172 168,170 167,169 167,168 166,167" stroke="black" stroke-width="1" /><polyline fill="none" points="161,158 161,163 160,164 161,165 160,166 160,168 159,169 159,170 158,171 158,174 159,175 159,176 159,175 158,174 158,172 159,171 159,169 161,167 160,166 161,165 162,165 163,164 163,163 163,164 162,165 161,165 160,164 161,163" stroke="black" stroke-width="1" /><polyline fill="none" points="228,157 227,158 227,161 226,162 226,163 226,162 227,161 227,158" stroke="black" stroke-width="1" /><polyline fill="none" points="164,156 165,156" stroke="black" stroke-width="1" /><polyline fill="none" points="230,155 230,156" stroke="black" stroke-width="1" /><polyline fill="none" points="227,152 226,153 225,153 224,154 222,154 221,155 219,155 218,156 217,156 216,157 214,157 213,158 211,158 210,159 209,159 208,160 207,160 203,164 202,164 199,167 199,168 196,171 196,172 193,175 193,176 192,177 192,178 191,179 191,182 190,183 190,185 188,187 187,187 187,189 188,190 190,190 191,191 192,191 193,192 197,192 193,192 192,191 191,191 190,190 189,190 187,188 190,185 190,183 191,182 191,179 192,178 192,177 195,174 195,173 198,170 198,169 205,162 206,162 209,159 210,159 211,158 213,158 214,157 216,157 217,156 218,156 219,155 221,155 222,154 224,154 225,153 226,153 227,152 228,153 228,154 226,156 225,156 224,157 225,156 226,156 228,154 228,153" stroke="black" stroke-width="1" /><polyline fill="none" points="165,148 164,149 164,150 163,151 163,152 162,153 162,156 162,153 163,152 163,151 164,150 164,149 165,148 166,148 170,152 170,153 171,154 171,155 172,156 172,159 171,160 169,158 168,158 169,158 170,159 170,160 171,161 171,160 172,159 173,160 172,159 172,156 171,155 171,154 170,153 170,151 167,148" stroke="black" stroke-width="1" /><polyline fill="none" points="89,145 93,145" stroke="black" stroke-width="1" /><polyline fill="none" points="68,140 66,142 66,144 65,145 65,148 62,151 64,153 71,153 72,152 72,150 73,149 73,144 72,143 72,142 71,141 70,141 69,140" stroke="black" stroke-width="1" /><polyline fill="none" points="12,138 11,139 10,139 10,140 9,141 10,142 10,143 11,144 11,146 12,147 12,148 14,150 14,151 15,152 15,153 16,154 16,155 18,157 18,158 19,159 19,160 20,161 20,162 21,163 21,164 23,166 23,167 24,168 24,169 25,170 25,171 26,172 26,173 27,174 27,176 28,177 28,178 29,179 29,181 30,182 30,184 31,185 31,187 32,188 32,190 33,191 33,193 34,194 34,196 35,197 35,199 36,200 36,201 37,202 37,204 38,205 38,206 39,207 39,208 40,209 40,211 41,212 41,213 42,214 42,216 43,217 43,218 44,219 44,220 45,221 45,222 46,223 46,225 47,226 47,228 48,229 48,231 49,232 49,234 50,235 50,237 51,238 51,240 52,241 52,243 53,244 53,246 54,247 54,249 55,250 55,251 56,252 56,254 57,255 57,256 58,257 58,258 59,259 59,260 60,261 60,262 61,263 61,264 62,265 62,266 63,267 63,268 64,269 64,270 65,271 65,273 66,274 66,275 67,276 67,277 68,278 68,279 69,280 69,281 70,282 70,283 72,285 72,286 74,288 74,289 77,292 77,293 80,296 83,296 83,293 82,292 82,291 81,290 81,289 80,288 80,287 78,285 78,284 77,283 77,282 76,281 76,280 75,279 75,278 73,276 73,274 72,273 72,272 71,271 71,270 69,268 69,266 68,265 68,264 67,263 67,262 66,261 66,260 65,259 65,258 64,257 64,255 63,254 63,253 62,252 62,251 61,250 61,248 60,247 60,246 59,245 59,243 58,242 58,240 57,239 57,238 56,237 56,234 55,233 55,231 54,230 54,228 53,227 53,225 52,224 52,222 51,221 51,220 50,219 50,218 49,217 49,215 48,214 48,213 47,212 47,210 46,209 46,208 45,207 45,205 44,204 44,203 43,202 43,200 42,199 42,198 41,197 41,196 40,195 40,193 39,192 39,190 38,189 38,187 37,186 37,184 36,183 36,181 35,180 35,179 34,178 34,176 33,175 33,173 32,172 32,171 31,170 31,169 30,168 30,167 29,166 29,164 27,162 27,161 26,160 26,159 25,158 25,157 23,155 23,154 22,153 22,152 21,151 21,150 20,149 20,148 18,146 18,145 17,144 17,143 15,141 15,140 14,139 13,139" stroke="black" stroke-width="1" /><polyline fill="none" points="110,135 108,137 108,138 106,140 106,141 105,142 105,145 106,146 106,147 107,148 107,149 109,149 110,150 118,150 120,148 120,145 119,144 119,143 114,138 114,136 113,135" stroke="black" stroke-width="1" /><polyline fill="none" points="108,129 108,130 107,131 107,133 106,134 106,135 105,136 105,137 100,142 99,142 97,144 95,144 97,144 98,143 99,143 101,141 102,141 104,139 104,138 105,137 105,136 106,135 106,134 107,133 107,131 109,129 110,130 111,130 115,134 117,134 118,135 119,135 121,137 121,139 123,141 124,141 125,142 125,144 126,145 128,145 130,147 130,148 131,149 132,149 133,150 134,150 135,151 136,151 138,153 144,153 152,161 152,162 153,163 153,164 154,165 154,166 156,168 156,169 151,174 151,175 150,176 150,177 149,178 149,179 148,180 148,186 149,187 149,191 150,192 150,194 149,195 148,194 147,194 145,192 144,192 143,191 142,191 141,190 140,190 139,189 137,189 136,188 127,188 126,189 119,189 117,187 116,187 117,187 118,188 118,189 126,189 127,188 136,188 137,189 139,189 140,190 141,190 142,191 143,191 145,193 146,193 148,195 149,195 150,194 150,192 149,191 149,187 148,186 148,180 149,179 149,178 150,177 150,176 156,170 156,168 154,166 154,165 153,164 153,163 152,162 152,161 151,160 151,159 146,154 145,154 144,153 139,153 138,152 137,152 136,151 135,151 134,150 133,150 128,145 126,145 125,144 125,142 124,141 123,141 121,139 121,136 120,136 119,135 118,135 117,134 116,134 113,131 112,131 110,129" stroke="black" stroke-width="1" /><polyline fill="none" points="77,127 80,130 80,132 81,133 81,138 82,139 82,140 83,141 83,142 85,144 87,144 85,144 83,142 83,141 82,140 82,139 81,138 81,133 80,132 80,130 79,129 79,128 78,127" stroke="black" stroke-width="1" /><polyline fill="none" points="192,126 191,127 190,127 189,128 188,128 187,129 186,129 186,130 185,131 186,132 192,132 193,131 194,131 194,127 193,126" stroke="black" stroke-width="1" /><polyline fill="none" points="58,126 67,126" stroke="black" stroke-width="1" /><polyline fill="none" points="200,125 198,127 198,133 199,134 199,136 200,137 200,138 201,139 201,140 202,141 206,141 207,140 207,138 206,137 206,136 205,135 205,134 204,133 204,132 203,131 203,129 202,128 202,127" stroke="black" stroke-width="1" /><polyline fill="none" points="79,125 82,128 82,130 83,131 83,133 83,131 82,130 82,127 80,125" stroke="black" stroke-width="1" /><polyline fill="none" points="112,124 110,126 110,127 111,126 117,132 130,132 132,130 133,130 136,127 135,127 131,131 130,131 129,132 117,132 115,130 115,129 114,128 113,128 111,126 111,125" stroke="black" stroke-width="1" /><polyline fill="none" points="78,123 81,123" stroke="black" stroke-width="1" /><polyline fill="none" points="111,122 110,123 109,123 108,124 108,125 107,126 107,127 106,128 106,129 105,130 105,131 104,132 104,133 103,134 103,135 98,140 97,140 95,142 87,142 85,140 85,139 84,138 84,136 84,138 85,139 85,140 87,142 95,142 96,141 97,141 99,139 100,139 102,137 102,136 103,135 103,134 104,133 104,132 105,131 105,130 106,129 106,128 107,127 107,126 111,122 112,122" stroke="black" stroke-width="1" /><polyline fill="none" points="105,121 102,124 101,124 98,127 97,127 95,129 88,129 84,125 84,124 83,123 84,124 84,125 85,126 85,127 86,128 87,128 88,129 95,129 96,128 97,128 99,126 100,126 104,122 105,122" stroke="black" stroke-width="1" /><polyline fill="none" points="142,117 139,120 138,120 136,122 135,122 137,122 140,119 141,119 143,117" stroke="black" stroke-width="1" /><polyline fill="none" points="141,115 140,116 139,116 136,119 135,119 133,121 133,122 133,121 134,120 135,120 137,118 138,118 141,115 143,115" stroke="black" stroke-width="1" /><polyline fill="none" points="89,114 92,114" stroke="black" stroke-width="1" /><polyline fill="none" points="107,113 111,113" stroke="black" stroke-width="1" /><polyline fill="none" points="95,113 104,113" stroke="black" stroke-width="1" /><polyline fill="none" points="212,112 211,113 210,113 209,114 208,114 205,117 205,119 210,119 211,118 212,118 213,117 214,117 214,113 213,113" stroke="black" stroke-width="1" /><polyline fill="none" points="69,109 69,114 70,115 70,116 73,119 74,119 75,120 84,120 86,122 86,123 87,124 87,125 88,126 90,126 91,127 93,127 94,126 95,126 96,125 97,125 101,121 102,121 104,119 105,119 104,119 103,120 102,120 99,123 98,123 95,126 94,126 93,127 91,127 90,126 89,126 86,123 86,121 85,121 84,120 75,120 73,118 72,118 70,116 70,115 69,114" stroke="black" stroke-width="1" /><polyline fill="none" points="78,108 78,111 79,112 89,112 90,111 95,111 96,110 110,110 111,111 114,111 115,112 115,113 114,114 113,114 115,114 115,112 114,111 111,111 110,110 96,110 95,111 90,111 89,112 80,112 78,110" stroke="black" stroke-width="1" /><polyline fill="none" points="132,107 131,108 129,108 127,110 127,112 127,110 129,108 131,108 132,107 133,107 134,108 135,108 136,109 137,109 138,110 141,110 138,110 137,109 136,109 135,108 134,108 133,107" stroke="black" stroke-width="1" /><polyline fill="none" points="152,106 152,107 149,110 146,110 150,110 151,111 151,112 143,120 143,121 140,124 139,124 140,124 151,113 151,111 152,110 151,111 150,110 150,109 152,107 153,108 154,107 154,106 154,107 153,108 152,107" stroke="black" stroke-width="1" /><polyline fill="none" points="77,106 76,107 76,108 75,109 75,111 76,112 76,113 77,114 78,114 79,115 86,115 79,115 75,111 75,109 76,108 76,107 77,106 78,106" stroke="black" stroke-width="1" /><polyline fill="none" points="68,106 68,107 67,108 67,109 66,110 66,113 67,114 67,116 68,117 68,118 71,121 72,121 73,122 75,122 73,122 67,116 67,114 66,113 66,110 67,109 67,108 69,106" stroke="black" stroke-width="1" /><polyline fill="none" points="99,105 102,105" stroke="black" stroke-width="1" /><polyline fill="none" points="189,103 187,105 187,107 188,108 188,109 189,110 189,112 190,113 190,114 191,115 191,116 192,117 192,118 193,119 194,119 195,120 198,120 198,117 197,116 197,113 196,112 196,111 193,108 193,107 192,106 192,105 191,104 190,104" stroke="black" stroke-width="1" /><polyline fill="none" points="53,98 53,99 55,101 55,102 56,102 58,104 59,104 60,105 61,105 62,106 62,111 61,112 60,112 57,115 56,115 55,116 54,116 53,117 53,118 52,119 52,121 53,122 54,122 55,123 66,123 67,124 73,124 67,124 66,123 55,123 52,120 52,119 56,115 57,115 58,114 59,114 62,111 62,106 61,105 60,105 58,103 57,103 54,100 54,99" stroke="black" stroke-width="1" /><polyline fill="none" points="116,97 116,100 115,101 115,102 112,105 110,105 112,105 113,104 114,104 114,103 115,102 115,101 116,100" stroke="black" stroke-width="1" /><polyline fill="none" points="132,95 132,96" stroke="black" stroke-width="1" /><polyline fill="none" points="157,93 155,95 155,96 154,97 153,97 153,98 152,99 152,100 151,101 151,104 150,105 150,106 149,107 147,107 146,108 141,108 140,107 138,107 137,106 136,106 135,105 134,105 133,104 132,105 130,105 129,106 127,106 125,108 125,109 124,110 124,111 125,112 125,114 126,115 127,115 126,115 125,114 125,112 124,111 124,110 125,109 125,108 127,106 129,106 130,105 132,105 133,104 134,105 135,105 137,107 140,107 141,108 146,108 147,107 149,107 150,106 150,105 151,104 151,101 152,100 152,99 155,96 156,97 156,101 155,102 154,101 154,100 154,101 155,102 155,103 154,104 153,104 155,104 155,102 156,101 156,97 155,96 155,95 157,93 159,95 159,96 160,97 160,110 161,111 161,117 160,118 157,118 156,117 156,116 154,116 154,118 152,120 151,120 151,121 150,122 150,123 149,124 149,125 148,126 148,128 147,129 147,131 146,132 146,133 145,134 145,135 143,137 140,137 140,139 148,147 149,147 150,148 151,148 155,152 155,153 156,154 156,155 158,157 158,156 159,155 159,154 160,153 160,151 161,150 161,149 165,145 167,145 172,150 172,151 173,152 173,153 174,154 174,156 175,157 175,160 175,157 174,156 174,154 173,153 173,152 172,151 172,149 169,146 168,146 167,145 165,145 164,146 163,146 162,147 162,148 161,149 161,150 160,151 160,153 159,154 159,155 158,156 155,153 155,152 154,151 154,150 153,149 152,149 151,148 150,148 148,146 147,146 145,144 145,143 140,138 141,137 144,137 144,136 146,134 146,132 147,131 147,129 148,128 148,126 149,125 149,124 150,123 150,122 154,118 154,117 155,116 157,118 160,118 161,117 161,111 160,110 160,97 159,96 159,94 158,94" stroke="black" stroke-width="1" /><polyline fill="none" points="56,92 53,95 53,96 53,95" stroke="black" stroke-width="1" /><polyline fill="none" points="112,90 109,93 109,94 106,97 103,97 106,97 107,96 108,96 108,95 111,92 111,91" stroke="black" stroke-width="1" /><polyline fill="none" points="55,90 54,91 53,91 51,93 51,94 50,95 50,99 51,100 51,101 55,105 56,105 60,109 58,111 57,111 55,113 54,113 52,115 51,115 51,116 50,117 50,118 49,119 49,121 50,122 50,123 51,124 52,124 53,125 55,125 53,125 49,121 49,119 50,118 50,117 53,114 54,114 56,112 57,112 60,109 60,108 58,106 57,106 55,104 54,104 52,102 52,101 50,99 50,95 52,93 52,92 53,91 54,91 55,90 56,90" stroke="black" stroke-width="1" /><polyline fill="none" points="118,88 118,91 117,92 117,94 117,92 118,91" stroke="black" stroke-width="1" /><polyline fill="none" points="99,85 99,87 95,91 95,94 96,94 97,95 103,95 104,94 106,94 107,93 107,92 110,89 110,88 108,90 108,91 105,94 104,94 103,95 97,95 95,93 95,92 98,89 98,88 99,87" stroke="black" stroke-width="1" /><polyline fill="none" points="180,80 179,81 179,83 182,83 182,80" stroke="black" stroke-width="1" /><polyline fill="none" points="149,77 149,78 146,81 149,78" stroke="black" stroke-width="1" /><polyline fill="none" points="106,77 104,79 103,79 100,82 100,83" stroke="black" stroke-width="1" /><polyline fill="none" points="153,76 152,77 152,78 151,79 151,80 150,81 151,80 151,79 154,76 155,77 155,78 154,79 154,80 150,84 149,84 148,85 145,85 144,86 143,86 142,87 141,87 138,90 138,91 135,94 135,95 134,96 137,93 137,92 143,86 144,86 145,85 148,85 149,84 150,84 151,83 152,83 153,82 153,81 154,80 154,79 155,78 155,76" stroke="black" stroke-width="1" /><polyline fill="none" points="103,76 101,78 100,78 98,80 98,81 97,82 97,85 96,86 96,87 94,89 93,89 92,90 92,91 91,92 91,93 92,94 92,95 93,95 95,97 97,97 96,97 95,96 94,96 91,93 91,92 96,87 96,86 97,85 97,82 98,81 98,80 100,78 101,78" stroke="black" stroke-width="1" /><polyline fill="none" points="95,76 95,78 93,80 92,80 90,82 89,82 88,83 87,83 86,84 85,84 84,85 84,86 83,87 83,88 83,87 87,83 88,83 89,82 90,82 91,81 92,81 95,78" stroke="black" stroke-width="1" /><polyline fill="none" points="18,76 17,77 17,78 16,79 16,80 15,81 15,83 14,84 14,86 13,87 13,90 12,91 12,94 11,95 11,100 10,101 10,107 9,108 9,111 10,112 13,112 13,110 14,109 14,106 15,105 15,102 16,101 16,98 17,97 17,94 18,93 18,91 19,90 19,87 20,86 20,82 21,81 21,77 20,76" stroke="black" stroke-width="1" /><polyline fill="none" points="105,75 106,75" stroke="black" stroke-width="1" /><polyline fill="none" points="124,74 123,75 122,75 121,76 121,77 120,78 120,79 119,80 119,81 119,80 120,79 120,78 124,74 126,74 130,78 130,79 130,78 126,74" stroke="black" stroke-width="1" /><polyline fill="none" points="150,73 150,75" stroke="black" stroke-width="1" /><polyline fill="none" points="124,71 123,72 122,72 120,74 119,74 119,75 118,76 118,77 117,78 117,79 116,80 116,88 115,89 115,92 114,93 114,97 113,98 113,100 110,103 102,103 101,102 95,102 94,101 90,101 89,102 89,103 90,104 95,104 90,104 89,103 89,102 90,101 94,101 95,102 101,102 102,103 110,103 111,102 112,102 112,101 113,100 113,98 114,97 114,93 115,92 115,89 116,88 116,80 117,79 117,78 118,77 118,76 121,73 122,73 124,71 126,71 128,73 129,73 131,75 131,76 132,77 131,76 131,75 128,72 127,72 126,71" stroke="black" stroke-width="1" /><polyline fill="none" points="92,70 92,72 93,73 93,76 91,78 90,78 89,79 88,79 87,80 86,80 84,82 83,82 82,83 82,84 81,85 81,86 80,87 80,92 81,93 82,93 81,93 80,92 80,87 81,86 81,85 85,81 86,81 88,79 89,79 90,78 92,78 92,77 93,76 93,73 92,72 92,71 93,70 95,72 95,73 95,72 94,71 94,70" stroke="black" stroke-width="1" /><polyline fill="none" points="69,67 69,68 73,72 73,75 71,77 70,77 69,78 68,78 67,79 66,79 66,81 67,82 69,82 70,83 72,83 73,84 73,85 73,84 72,83 70,83 69,82 67,82 66,81 66,80 68,78 69,78 70,77 71,77 73,75 73,71" stroke="black" stroke-width="1" /><polyline fill="none" points="113,61 111,63 111,64 108,67 108,68 107,69 106,69 105,70 103,70 102,71 101,71 102,71 103,70 105,70 106,69 107,69 110,66 110,65 111,64 111,63 113,61 114,61 115,62 116,62 119,65 120,65 121,66 118,63 117,63 115,61" stroke="black" stroke-width="1" /><polyline fill="none" points="110,60 109,61 109,62 107,64 107,65 105,67 104,67 103,68 102,68 101,69 100,69 99,70 99,71 99,70 100,69 101,69 102,68 103,68 104,67 105,67 108,64 108,63 110,61" stroke="black" stroke-width="1" /><polyline fill="none" points="145,59 145,63 146,64 146,65 149,68 149,71 149,68 148,67 148,66 145,63" stroke="black" stroke-width="1" /><polyline fill="none" points="116,59 117,59 123,65 121,63 121,62 120,62 117,59" stroke="black" stroke-width="1" /><polyline fill="none" points="112,59 113,59" stroke="black" stroke-width="1" /><polyline fill="none" points="37,58 37,59 36,60 36,63 37,64 37,66 38,67 38,68 39,69 39,70 33,76 33,79 37,79 38,78 39,78 40,77 41,77 42,76 43,76 44,77 44,82 45,83 45,85 46,86 46,87 47,88 47,89 50,89 51,88 51,82 50,81 50,79 49,78 49,76 48,75 48,72 47,72 46,71 45,71 44,70 44,66 43,65 43,64 41,62 41,61 40,60 40,59 39,58" stroke="black" stroke-width="1" /><polyline fill="none" points="112,57 114,57" stroke="black" stroke-width="1" /><polyline fill="none" points="61,56 60,57 59,57 58,58 57,58 56,59 55,59 54,60 53,60 51,62 50,62 49,63 49,64 48,65 49,66 54,66 55,65 57,65 58,64 60,64 61,63 62,63 64,61 64,57 63,56" stroke="black" stroke-width="1" /><polyline fill="none" points="133,49 132,50 131,50 125,56 122,56 121,57 116,57 121,57 122,56 125,56 126,55 127,55 129,53 129,52 131,50 132,50 133,49 136,49 143,56 143,59 142,60 142,63 143,64 143,65 145,67 145,68 146,69 146,70 147,71 147,76 141,82 141,83 135,89 135,90 134,91 134,92 133,93 134,92 134,91 140,85 140,84 147,77 147,71 146,70 146,68 144,66 144,65 142,63 142,60 143,59 143,56 142,55 142,54 138,50 137,50 136,49" stroke="black" stroke-width="1" /><polyline fill="none" points="92,49 91,50 90,50 90,51 89,52 89,53 88,54 88,55 87,56 87,57 83,61 74,61 73,60 71,60 70,61 69,61 69,62 68,63 68,65 68,63 71,60 73,60 74,61 83,61 84,60 85,60 86,59 86,58 87,57 87,56 88,55 88,54 89,53 89,52 92,49 94,49 95,50 96,50 99,53 96,50 95,50 94,49" stroke="black" stroke-width="1" /><polyline fill="none" points="134,46 133,47 131,47 130,48 129,48 124,53 123,53 122,54 113,54 112,55 110,55 109,56 107,56 106,57 105,57 105,59 108,59 109,58 110,58 109,58 108,59 106,59 105,58 107,56 109,56 110,55 112,55 113,54 122,54 123,53 125,53 131,47 133,47 134,46 136,46 138,48 139,48 145,54 145,56 145,54 144,53 144,52 141,49 140,49 138,47 137,47 136,46" stroke="black" stroke-width="1" /><polyline fill="none" points="92,46 91,47 90,47 89,48 88,48 87,49 87,50 86,51 86,53 85,54 85,55 82,58 80,58 79,59 77,59 76,58 73,58 72,57 71,57 70,58 69,58 68,59 67,59 67,60 66,61 66,63 65,64 66,65 66,68 67,69 67,70 70,73 70,74 69,75 68,75 67,76 66,76 65,77 64,77 62,79 62,81 63,82 63,83 64,83 65,84 67,84 68,85 70,85 68,85 67,84 65,84 62,81 62,79 64,77 65,77 66,76 68,76 70,74 70,72 66,68 66,65 65,64 66,63 66,61 69,58 70,58 71,57 72,57 73,58 76,58 77,59 79,59 80,58 83,58 84,57 84,56 85,55 85,54 86,53 86,51 90,47 91,47 92,46 94,46 95,47 96,47 98,49 99,49 100,50 98,48 97,48 96,47 95,47 94,46" stroke="black" stroke-width="1" /><polyline fill="none" points="147,36 147,38 147,37 148,36" stroke="black" stroke-width="1" /><polyline fill="none" points="151,32 149,34 150,35 150,36 151,37 154,37 154,33 153,32" stroke="black" stroke-width="1" /><polyline fill="none" points="115,3 114,4 108,4 107,5 103,5 102,6 98,6 97,7 94,7 93,8 91,8 90,9 88,9 87,10 85,10 84,11 82,11 81,12 80,12 79,13 77,13 76,14 75,14 74,15 73,15 72,16 71,16 70,17 69,17 68,18 67,18 66,19 65,19 62,22 61,22 60,23 59,23 57,25 56,25 55,26 54,26 52,28 51,28 48,31 47,31 45,33 44,33 38,39 37,39 37,40 32,45 32,46 30,48 30,49 28,51 28,52 26,54 26,55 25,56 25,58 24,59 24,60 23,61 23,62 22,63 22,64 21,65 21,66 22,67 25,67 26,66 26,65 27,64 27,63 28,62 28,61 30,59 30,58 32,56 32,55 37,50 37,49 47,39 48,39 51,36 52,36 55,33 56,33 58,31 59,31 61,29 62,29 63,28 64,28 66,26 67,26 69,24 70,24 71,23 72,23 74,21 75,21 76,20 77,20 78,19 79,19 80,18 82,18 83,17 85,17 86,16 88,16 89,15 90,15 91,14 93,14 94,13 97,13 98,12 102,12 103,11 106,11 107,10 112,10 113,9 135,9 136,10 139,10 140,11 142,11 143,12 145,12 146,13 147,13 149,15 150,15 154,19 155,19 158,22 160,22 162,24 163,24 164,25 165,25 167,27 168,27 175,34 176,34 181,39 182,39 194,51 194,52 197,55 197,56 198,57 198,58 200,60 200,61 202,63 202,64 203,65 203,66 204,67 204,68 205,69 205,70 206,71 206,72 207,73 207,74 208,75 208,76 209,77 209,78 210,79 210,80 211,81 211,82 212,83 212,84 213,85 213,86 214,87 214,88 215,89 215,90 216,91 216,92 217,93 217,94 218,95 218,97 219,98 219,99 220,100 220,102 221,103 221,104 222,105 222,106 223,107 223,108 224,109 224,110 225,111 225,113 226,114 226,116 227,117 227,118 228,119 228,121 229,122 229,124 230,125 230,127 231,128 231,130 232,131 232,132 233,133 233,134 234,135 234,137 235,138 235,139 236,140 236,142 237,143 237,144 238,145 238,146 239,147 239,148 240,149 240,150 241,151 241,152 242,153 242,155 243,156 243,158 244,159 244,161 245,162 245,164 246,165 246,166 247,167 247,168 248,169 248,170 249,171 249,173 250,174 250,175 251,176 251,178 252,179 252,180 253,181 253,183 254,184 254,185 255,186 255,188 256,189 256,190 257,191 257,193 258,194 258,195 259,196 259,197 260,198 260,200 261,201 261,202 262,203 262,204 263,205 263,206 262,207 251,207 250,208 243,208 242,209 238,209 237,210 235,210 234,211 232,211 231,212 230,212 229,213 228,213 227,214 225,214 224,215 222,215 221,216 220,216 219,217 217,217 216,218 214,218 213,219 212,219 211,220 210,220 209,221 208,221 207,222 206,222 205,223 204,223 203,224 202,224 201,225 200,225 199,226 198,226 197,227 196,227 195,228 194,228 192,230 191,230 189,232 188,232 188,233 187,234 188,235 189,235 188,235 187,234 190,231 191,231 193,229 194,229 196,227 197,227 198,226 199,226 200,225 201,225 202,224 203,224 204,223 205,223 206,222 207,222 208,221 209,221 210,220 211,220 212,219 213,219 214,218 216,218 217,217 219,217 220,216 221,216 222,215 224,215 225,214 227,214 228,213 229,213 230,212 231,212 232,211 234,211 235,210 237,210 238,209 242,209 243,208 250,208 251,207 262,207 263,206 266,206 264,206 262,204 262,203 261,202 261,201 260,200 260,198 259,197 259,196 258,195 258,194 257,193 257,191 256,190 256,189 255,188 255,186 254,185 254,184 253,183 253,181 252,180 252,179 251,178 251,176 250,175 250,174 249,173 249,171 248,170 248,169 247,168 247,167 246,166 246,165 245,164 245,162 244,161 244,159 243,158 243,156 242,155 242,153 241,152 241,151 240,150 240,149 239,148 239,147 238,146 238,145 237,144 237,143 236,142 236,140 235,139 235,138 234,137 234,135 233,134 233,133 232,132 232,131 231,130 231,128 230,127 230,125 229,124 229,122 228,121 228,119 227,118 227,117 226,116 226,114 225,113 225,111 224,110 224,109 223,108 223,107 222,106 222,105 221,104 221,103 220,102 220,100 219,99 219,98 218,97 218,95 217,94 217,93 216,92 216,91 215,90 215,89 214,88 214,87 213,86 213,85 212,84 212,83 211,82 211,81 210,80 210,79 209,78 209,77 208,76 208,75 207,74 207,73 206,72 206,71 205,70 205,69 204,68 204,67 203,66 203,65 202,64 202,63 201,62 201,61 199,59 199,58 197,56 197,55 196,54 196,53 193,50 193,49 184,40 183,40 178,35 177,35 170,28 169,28 167,26 166,26 165,25 164,25 162,23 161,23 160,22 159,22 157,20 156,20 152,16 151,16 149,14 148,14 147,13 146,13 145,12 143,12 142,11 140,11 139,10 136,10 135,9 113,9 112,10 107,10 106,11 103,11 102,12 98,12 97,13 94,13 93,14 91,14 90,15 89,15 88,16 86,16 85,17 83,17 82,18 80,18 79,19 78,19 77,20 76,20 75,21 74,21 73,22 72,22 70,24 69,24 68,25 67,25 65,27 64,27 62,29 61,29 60,30 59,30 57,32 56,32 54,34 53,34 50,37 49,37 46,40 45,40 38,47 38,48 33,53 33,54 31,56 31,57 29,59 29,60 28,61 28,62 27,63 27,64 24,67 22,67 21,66 21,65 22,64 22,63 23,62 23,61 24,60 24,59 25,58 25,56 27,54 27,53 29,51 29,50 31,48 31,47 36,42 36,41 39,38 40,38 46,32 47,32 49,30 50,30 53,27 54,27 56,25 57,25 58,24 59,24 61,22 62,22 63,21 64,21 67,18 68,18 69,17 70,17 71,16 72,16 73,15 74,15 75,14 76,14 77,13 79,13 80,12 81,12 82,11 84,11 85,10 87,10 88,9 90,9 91,8 93,8 94,7 97,7 98,6 102,6 103,5 107,5 108,4 114,4 115,3 135,3 136,4 140,4 141,5 143,5 144,6 146,6 147,7 148,7 149,8 150,8 151,9 152,9 154,11 155,11 161,17 161,18 163,18 164,19 165,19 166,20 167,20 168,21 169,21 170,22 171,22 173,24 174,24 182,32 183,32 187,36 188,36 194,42 194,43 200,49 200,50 202,52 202,53 204,55 204,56 206,58 206,59 208,61 208,63 209,64 209,65 210,66 210,67 212,69 212,70 213,71 213,72 214,73 214,74 215,75 215,76 216,77 216,78 217,79 217,80 218,81 218,82 219,83 219,84 220,85 220,86 221,87 221,88 222,89 222,91 223,92 223,93 224,94 224,95 225,96 225,98 226,99 226,100 227,101 227,102 228,103 228,105 229,106 229,108 230,109 230,110 231,111 231,112 232,113 232,114 233,115 233,117 234,118 234,120 235,121 235,123 236,124 236,126 237,127 237,129 238,130 238,132 239,133 239,134 240,135 240,136 241,137 241,138 242,139 242,140 243,141 243,142 244,143 244,144 245,145 245,147 246,148 246,149 247,150 247,151 249,153 249,154 250,155 250,156 253,159 253,161 254,162 254,163 255,164 255,166 256,167 256,168 257,169 257,171 258,172 258,173 259,174 259,175 260,176 260,177 261,178 261,180 262,181 262,182 263,183 263,185 264,186 264,187 265,188 265,190 266,191 266,192 267,193 267,194 268,195 268,196 269,197 269,199 270,200 270,201 271,202 271,204 272,205 272,207 273,208 273,210 274,211 274,212 275,213 275,215 276,216 276,218 277,219 277,220 278,221 278,222 279,223 279,224 280,225 280,226 282,228 282,229 284,231 284,232 285,233 285,234 286,235 286,236 287,237 287,238 288,239 288,241 289,242 289,243 290,244 290,245 291,246 291,247 292,248 292,249 293,250 293,252 294,253 294,254 295,255 295,262 294,263 294,266 286,274 285,274 281,278 281,279 268,292 267,292 262,297 261,297 258,300 257,300 255,302 254,302 252,304 251,304 250,305 249,305 247,307 246,307 245,308 244,308 243,309 242,309 241,310 240,310 239,311 238,311 237,312 236,312 234,314 233,314 231,316 230,316 226,320 225,320 224,321 223,321 222,322 221,322 220,323 211,323 210,322 209,322 204,317 204,316 202,314 202,313 201,312 201,311 203,309 209,315 210,315 212,317 219,317 220,316 221,316 223,314 224,314 226,312 227,312 230,309 231,309 233,307 234,307 235,306 236,306 238,304 239,304 240,303 242,303 244,301 245,301 246,300 247,300 248,299 249,299 250,298 250,294 248,292 248,291 247,290 247,288 246,287 246,286 245,285 245,284 244,283 244,282 242,280 242,279 242,280 243,281 243,282 245,284 245,285 246,286 246,287 247,288 247,290 248,291 248,292 249,293 249,294 250,295 250,297 247,300 246,300 245,301 244,301 243,302 242,302 241,303 240,303 239,304 238,304 237,305 236,305 234,307 233,307 232,308 231,308 229,310 228,310 225,313 224,313 222,315 221,315 219,317 213,317 212,316 211,316 205,310 204,310 203,309 201,311 201,312 202,313 202,314 203,315 203,316 205,318 205,319 207,321 208,321 209,322 210,322 211,323 220,323 221,322 222,322 223,321 224,321 225,320 226,320 229,317 230,317 232,315 233,315 235,313 236,313 238,311 239,311 240,310 241,310 242,309 243,309 244,308 245,308 246,307 247,307 248,306 249,306 251,304 252,304 253,303 254,303 256,301 257,301 259,299 260,299 263,296 264,296 269,291 270,291 273,288 273,287 275,285 276,285 276,284 287,273 288,273 293,268 293,267 294,266 294,263 295,262 295,255 294,254 294,253 293,252 293,250 292,249 292,248 291,247 291,245 289,243 289,242 288,241 288,239 287,238 287,237 286,236 286,235 285,234 285,233 284,232 284,231 283,230 283,229 281,227 281,226 279,224 279,223 278,222 278,221 277,220 277,219 276,218 276,216 275,215 275,213 274,212 274,211 273,210 273,208 272,207 272,205 271,204 271,202 270,201 270,200 269,199 269,197 268,196 268,195 267,194 267,193 266,192 266,191 265,190 265,188 264,187 264,186 263,185 263,183 262,182 262,181 261,180 261,178 260,177 260,176 259,175 259,174 258,173 258,172 257,171 257,169 256,168 256,167 255,166 255,164 254,163 254,162 253,161 253,159 252,158 252,157 249,154 249,153 248,152 248,151 246,149 246,148 245,147 245,145 244,144 244,143 243,142 243,141 242,140 242,139 241,138 241,137 240,136 240,134 238,132 238,130 237,129 237,127 236,126 236,124 235,123 235,121 234,120 234,118 233,117 233,115 232,114 232,113 231,112 231,111 230,110 230,109 229,108 229,106 228,105 228,103 227,102 227,101 226,100 226,99 225,98 225,96 224,95 224,94 223,93 223,92 222,91 222,89 221,88 221,87 220,86 220,85 219,84 219,83 218,82 218,81 217,80 217,79 216,78 216,77 215,76 215,75 214,74 214,73 213,72 213,71 212,70 212,69 211,68 211,67 209,65 209,64 208,63 208,61 207,60 207,59 205,57 205,56 203,54 203,53 201,51 201,50 199,48 199,47 193,41 193,40 190,37 189,37 185,33 184,33 176,25 175,25 173,23 172,23 171,22 170,22 169,21 168,21 167,20 166,20 165,19 164,19 163,18 162,18 160,16 160,15 157,12 156,12 154,10 153,10 152,9 151,9 150,8 149,8 148,7 147,7 146,6 144,6 143,5 141,5 140,4 136,4 135,3" stroke="black" stroke-width="1" /></svg>